<svg xmlns="http://www.w3.org/2000/svg" viewBox="0 0 100 100">
    <title>icone_accueil_100px</title>
    <g id="ic么nes_100px" data-name="ic么nes 100px"><g id="ic么ne_Accueil_100px" data-name="ic么ne Accueil 100px">
    <path fill="#7FBA28" d="M98,100a2,2,0,0,0,2-2A50,50,0,0,0,0,98a2,2,0,0,0,2,2H40.47a2,2,0,0,0,2-2V74a2,2,0,0,1,2-2h11a2,2,0,0,1,2,2V95.88c0,.1.05.19.06.29V98a2,2,0,0,0,2,2Z"/>
    <path fill="#7FBA28" d="M51.5,20.93,80,48.31A6.12,6.12,0,0,0,84.28,50h13.6a2,2,0,0,0,1.49-3.47L51.5.6a2.17,2.17,0,0,0-3,0L.63,46.53A2,2,0,0,0,2.12,50h13.6A6.12,6.12,0,0,0,20,48.31L48.5,20.93A2.19,2.19,0,0,1,51.5,20.93Z"/>
    </g></g>
</svg>