<svg xmlns="http://www.w3.org/2000/svg" viewBox="0 0 100 100"><title>icone_panier_+_100px</title><g id="icônes_100px" data-name="icônes 100px"><g id="icône_Panier_100px" data-name="icône Panier+ 100px"><path id="_Tracé_" data-name="&lt;Tracé&gt;" d="M77.22,54.44A22.78,22.78,0,1,0,100,77.22,22.78,22.78,0,0,0,77.22,54.44Zm15.19,24.8a2,2,0,0,1-2,2H81.27v9.11a2,2,0,0,1-2,2h-4a2,2,0,0,1-2-2V81.27H64.06a2,2,0,0,1-2-2v-4a2,2,0,0,1,2-2h9.11V64.06a2,2,0,0,1,2-2h4a2,2,0,0,1,2,2v9.11h9.11a2,2,0,0,1,2,2Z"/><path id="_Tracé_2" data-name="&lt;Tracé&gt;" d="M47.35,77.22a29.82,29.82,0,0,1,45.2-25.6l6-12a2,2,0,0,0-1.81-2.93h-21v-.06a26.35,26.35,0,0,0-52.65,0v.06H2A2,2,0,0,0,.22,39.65L22.38,84a6.09,6.09,0,0,0,5.44,3.35H49.15A29.75,29.75,0,0,1,47.35,77.22ZM31.47,36.68a17.92,17.92,0,0,1,35.81,0v0H31.47Z"/></g></g></svg>