<svg xmlns="http://www.w3.org/2000/svg" viewBox="0 0 1000 788"><defs><style>.cls-1,.cls-2{fill:none;stroke:#FFFEF9;stroke-miterlimit:10;}.cls-1{stroke-width:11.42px;}.cls-2{stroke-width:3.43px;}</style></defs><title>logo</title><g fill="#FFFEF9" id="reproduction"><g fill="#FFFEF9" id="logo_complet" data-name="logo complet">
<path id="demi_cercle" data-name="demi cercle" d="M951.77,788H74.86C160.41,634,324.7,529.84,513.31,529.84S866.21,634,951.77,788Z"/>
<path id="table" d="M938.69,638.33c-25.26-26.28-49.23-44.22-53.55-40.07-3.22,3.1,5.45,17.66,20.58,35.79-1.43,10.39-6.94,26.9-26.83,35.22,0,0-9.24,5.05-39.28-3.31l71.22,71.21c-8.36-30-3.31-39.28-3.31-39.28,8-19.09,23.51-24.93,33.93-26.64,17.61,16,31.91,25.28,35.15,22.17C980.92,689.27,963.94,664.6,938.69,638.33Z"/>
<path id="chaise" d="M839.52,580.07l43.38-57.56a4,4,0,0,0,3.84-1.53l6.67-8.85a4,4,0,0,0-.79-5.61L834.74,462.9a4,4,0,0,0-5.62.79l-6.67,8.85a4,4,0,0,0,.39,5.25L779.72,535l-23.2,5h0l-2.19,2.91,3.73,2.81-7.68,10.19,2.85,2.15L730.14,588.7l5.06,3.82,23.1-30.65,6.87,5.18-23.1,30.65,3.56,2.67,23.09-30.65L814,603.86l-23.09,30.65,3.55,2.68,23.1-30.65,4.86,3.66-23.1,30.65,5.07,3.82L827.5,614l1,.77,7.68-10.2,3.5,2.64,2.19-2.91h0Zm-20.73-15.62,43.09-57.18,4.3,3.24-43.09,57.18Zm-3.55-2.67-4.37-3.29L854,501.3l4.37,3.29Zm-7.92-6L803.54,553l43.08-57.18,3.79,2.85ZM800,550.28,795.62,547l43.08-57.18,4.37,3.29Zm26.66,20.09,43.09-57.19,6.77,5.1-43.09,57.19Zm2.28-87.93,6.23,4.69-43.09,57.18-6.23-4.69Z"/>
<path id="échelle" d="M764,431.42a6.32,6.32,0,0,0-12.12-2.51h0l-5.27,14.28-47.85-18,5.34-14.46h0a6.31,6.31,0,0,0-11.81-4.37h0l-68,184.11L636,594.84l20.1-54.39,47.85,18L683.81,613l11.84,4.38,68-184.12h0A6.29,6.29,0,0,0,764,431.42Zm-20.74,20.79-9.75,26.4-47.85-18,9.75-26.4Zm-13.08,35.42L720.38,514l-47.85-18,9.76-26.4Zm-70.69,43.8,9.75-26.38,47.85,18-9.75,26.38Z"/>
<path id="mannequin" d="M634.4,409.22s2.64-4-4.52-7.29l-11.46-5.42s-4.53-.57-1.95-13.07c0,0,1.22-2.25-6.67-3.18l-5.58-.09c-9.82-.94-9,1.38-9,1.38.19,12.76-4.37,12.47-4.37,12.47l-12.27,3.18c-7.65,1.88-5.81,6.31-5.81,6.31l7.72,50.75a19.59,19.59,0,0,1-5.47,17.64c-6.79,6.18-6.76,13-6.76,13l-3,29.58h0l0,.42,21.13,1.88v31.35h8.36v-30.6l9.09.81,17,1.7,0-.19h0L623.57,490s1.3-6.65-4.21-14a19.58,19.58,0,0,1-2.06-18.35Z"/>
<g id="plantes"><rect id="_Tracé_" data-name="&lt;Tracé&gt;" x="497.27" y="523.79" width="34.32" height="19.33"/><polygon points="534.8 526.24 493.67 526.24 495.28 517.11 533.78 517.11 534.8 526.24"/><path d="M493.67,483.36s-3.3,13.29,26.5,38.32c0,0,16.57-23.14,20.07-46a14.65,14.65,0,0,1-5.44,9.89s7.38-16.33,5.44-28.29c0,0-4.28,18.67-11.57,23.63,0,0,10.21-26.34,9.33-44.23,0,0-1.16,10-11.66,32.95a24.51,24.51,0,0,1,.58-13.22s-4.57,7.09-4.47,11.08c0,0,1.94-20-.39-30.23,0,0-1.46,9.72-3.79,13.22,0,0-2.33,3.4-.29,14.87,0,0-6.13-5.54-4.86-37.43,0,0-6.71,15.27-5.06,31.79,0,0-4.86-12.25-4.08-24.5,0,0-5.25,15.75.58,40.25a28.12,28.12,0,0,0-7.19-10.69s6.76,17.88,5.93,28.5C503.3,493.27,494,489.89,493.67,483.36Z"/><rect id="_Tracé_2" data-name="&lt;Tracé&gt;" x="437.85" y="513.42" width="43.41" height="29.7"/><polygon points="484.68 516.02 434.42 516.02 435.78 506.89 483.61 506.89 484.68 516.02"/><path d="M493.67,474.35s-28.77.73-33.15,37.84C460.52,512.19,477.83,491.34,493.67,474.35Z"/><path d="M467.33,406.56s2.77,18.61-4.18,44c0,0-5.2,10.5-4.24,32.76,0,0,14.15-24.49,14.62-41.5C473.53,441.86,478.46,419.92,467.33,406.56Z"/><path d="M454,378.1s1.86,56.29,0,84c0,0,9.07-29,9.07-38.49C463.05,423.6,466.34,387.58,454,378.1Z"/><path d="M446.86,385.1s-3.35,27.27,0,40.39c0,0,5.25,16.77,4.82,31.79,0,0-10.65-13.56-11.67-29V407.7S439.28,399.83,446.86,385.1Z"/><path d="M428.93,398.66s-5.11,22.75,0,38.64c0,0,1.6,8.75,13.12,27.27,0,0,6.93,8.9,7.22,18.6-.29,3.28-2-.37-2-.37-4.16-10.5-9.26-13.71-9.26-13.71C429.8,464,424,448.68,424,448.68s0,16.67,6.93,27.36c0,0,14.34,10.8,18.3,22.75,0,0,4.25,6.61,4.74,14.1,0,0,4.63-18.92,8.75-21.19,0,0,12.54-9.14,18.47-22.56,0,0,6-14.87,0-27.32,0,0-8.94,32.47-22.75,45.7a22.57,22.57,0,0,1-2.28-9.09s1.6-8.83-6.56-16C449.64,462.46,435.93,452.91,428.93,398.66Z"/></g>
<g id="lampe"><line id="_Tracé_3" data-name="&lt;Tracé&gt;" class="cls-1" x1="305.37" y1="529.84" x2="325.39" y2="580.36"/><circle id="_Tracé_4" data-name="&lt;Tracé&gt;" cx="305.37" cy="529.84" r="10.5"/><line id="_Tracé_5" data-name="&lt;Tracé&gt;" class="cls-1" x1="305.37" y1="529.84" x2="312.56" y2="467.59"/><path d="M361.8,436.68a39.1,39.1,0,0,0-24.41,8.53l-8.7-1.85a21.19,21.19,0,0,0-8.83,41.45l3.91.84a39.29,39.29,0,0,0,31.49,29l22-74.84A39.35,39.35,0,0,0,361.8,436.68Z"/></g>
<path id="marteau" d="M210.26,536.3l58.23,70.05-23.06,18.28L182.3,545.14c-7.19-14.18-16.48,0-16.48,0-6,7.62-5.08,23.18-5.08,23.18.48,10.77-4.62,4.15-4.62,4.15-17.2-28,2.89-46.29,2.89-46.29l26-23s4-4.22,9.36-4.35c0,0,6.4,1,9.53-6.8L206,486s1.91-5,8.84-.07c0,0,5.48,2.54,9.16,12.84,2.87,8-2.94,8.33-2.94,8.33h-6.42s-18.7,1.65-9.62,21.57C205,528.69,205.81,531,210.26,536.3Z"/>
<g fill="#FFFEF9" id="roue"><path id="_Tracé_6" data-name="&lt;Tracé&gt;" d="M138.32,663.83a10.73,10.73,0,0,0-1.87-4.68,9.12,9.12,0,0,0-1.23-1.48A11.26,11.26,0,0,0,131,655a10.33,10.33,0,0,0-1.92-.46,10.72,10.72,0,0,0-2.54-.14,11.3,11.3,0,0,0-2.49.46,10.27,10.27,0,0,0-1.83.73,11.37,11.37,0,0,0-3.86,3.24,11.06,11.06,0,0,0-2.26,6.54,8,8,0,0,0,0,1,6,6,0,0,0,.14,1,10.63,10.63,0,0,0,1.87,4.68,8.92,8.92,0,0,0,1.23,1.51,10.51,10.51,0,0,0,6.17,3.15,10.22,10.22,0,0,0,2.54.14,10.75,10.75,0,0,0,2.49-.46,10.27,10.27,0,0,0,1.83-.73,10.93,10.93,0,0,0,3.86-3.22,10.46,10.46,0,0,0,1-1.64,11,11,0,0,0,1.23-4.91,8.17,8.17,0,0,0,0-1A6,6,0,0,0,138.32,663.83Zm-5.94,1.82a4.9,4.9,0,0,1-.56,2.25,4.26,4.26,0,0,1-.47.75,4.94,4.94,0,0,1-1.77,1.47,5,5,0,0,1-.83.34,5.34,5.34,0,0,1-1.14.21,4.47,4.47,0,0,1-1.16-.07,4.68,4.68,0,0,1-2.82-1.44,4.18,4.18,0,0,1-.57-.69,4.92,4.92,0,0,1-.85-2.14,3.11,3.11,0,0,1-.07-.44,3.38,3.38,0,0,1,0-.45,4.9,4.9,0,0,1,.57-2.24,3.92,3.92,0,0,1,.47-.75,5.34,5.34,0,0,1,1.76-1.48,4.57,4.57,0,0,1,.84-.33,4.78,4.78,0,0,1,1.14-.21,5,5,0,0,1,1.16.06,4.34,4.34,0,0,1,.88.21,5.16,5.16,0,0,1,1.94,1.24,4.57,4.57,0,0,1,.57.68,5,5,0,0,1,.85,2.14,3.32,3.32,0,0,1,.06.44A1.69,1.69,0,0,1,132.38,665.65Z"/><path class="cls-2" d="M124,654.82a10.07,10.07,0,0,0-1.83.71L101.42,614.4a54.21,54.21,0,0,1,9.28-3.69Z"/><path class="cls-2" d="M122.2,655.53a11.07,11.07,0,0,0-3.86,3.26l-36.7-27.85a57,57,0,0,1,19.78-16.54Z"/><path class="cls-2" d="M118.34,658.79a9.31,9.31,0,0,0-1,1.63l-41-21.06a57.4,57.4,0,0,1,5.35-8.42Z"/><path class="cls-2" d="M117.31,660.42a10.7,10.7,0,0,0-1.23,4.89l-46.09-1a56.65,56.65,0,0,1,6.3-25Z"/><path class="cls-2" d="M116.07,666.29a6.25,6.25,0,0,0,.14,1l-45.56,7.06c-.26-1.63-.44-3.29-.56-5s-.15-3.35-.1-5l46.09,1A6.39,6.39,0,0,0,116.07,666.29Z"/><path class="cls-2" d="M118.07,672,80.22,698.26a56.69,56.69,0,0,1-9.57-23.93l45.56-7.06A10.76,10.76,0,0,0,118.07,672Z"/><path class="cls-2" d="M119.32,673.45,86.63,705.92a55.6,55.6,0,0,1-6.41-7.66L118.07,672A8.58,8.58,0,0,0,119.32,673.45Z"/><path class="cls-2" d="M123.57,676.14l-15.14,43.53a57.26,57.26,0,0,1-21.8-13.75l32.69-32.47A11,11,0,0,0,123.57,676.14Z"/><path class="cls-2" d="M125.48,676.61l-7.36,45.48a53.26,53.26,0,0,1-9.69-2.42l15.14-43.53A9.88,9.88,0,0,0,125.48,676.61Z"/><path class="cls-2" d="M143.83,720.38v0a57.42,57.42,0,0,1-12.76,2.32,56.79,56.79,0,0,1-12.95-.61v0l7.36-45.48a10.09,10.09,0,0,0,2.53.13,10.65,10.65,0,0,0,2.49-.46Z"/><path class="cls-2" d="M153.11,716.69a53.41,53.41,0,0,1-9.28,3.69l-13.33-44.1a10.09,10.09,0,0,0,1.83-.72Z"/><path class="cls-2" d="M172.89,700.17a57.06,57.06,0,0,1-19.78,16.52l-20.78-41.13a11.1,11.1,0,0,0,3.86-3.23Z"/><path class="cls-2" d="M178.24,691.74a57,57,0,0,1-5.35,8.43l-36.7-27.84a8.78,8.78,0,0,0,1-1.65Z"/><path class="cls-2" d="M184.54,666.75a56.65,56.65,0,0,1-6.3,25l-41-21.06a10.83,10.83,0,0,0,1.23-4.89Z"/><path class="cls-2" d="M184.44,661.74c.11,1.69.15,3.36.1,5l-46.09-1a6.53,6.53,0,0,0,0-1,7.3,7.3,0,0,0-.14-1l45.55-7.07C184.14,658.39,184.32,660.05,184.44,661.74Z"/><path class="cls-2" d="M183.87,656.76l-45.55,7.07a10.69,10.69,0,0,0-1.87-4.69l37.86-26.31A56.54,56.54,0,0,1,183.87,656.76Z"/><path class="cls-2" d="M174.31,632.83l-37.86,26.31a9,9,0,0,0-1.24-1.47L167.9,625.2A57.17,57.17,0,0,1,174.31,632.83Z"/><path class="cls-2" d="M167.9,625.2l-32.69,32.47A11,11,0,0,0,131,655l15.14-43.52A57.11,57.11,0,0,1,167.9,625.2Z"/><path class="cls-2" d="M146.1,611.43,131,655a10.67,10.67,0,0,0-1.91-.47L136.41,609A53.28,53.28,0,0,1,146.1,611.43Z"/><path class="cls-2" d="M136.41,609v0l-7.36,45.48a10.58,10.58,0,0,0-2.53-.13,10.16,10.16,0,0,0-2.49.47L110.7,610.71v0A57.65,57.65,0,0,1,136.41,609Z"/>
<path id="_Tracé_7" data-name="&lt;Tracé&gt;" d="M127.26,594.18a71.37,71.37,0,1,0,71.37,71.37A71.38,71.38,0,0,0,127.26,594.18Zm0,133.42a62.06,62.06,0,1,1,62.06-62.05A62,62,0,0,1,127.26,727.6Z"/></g>
<g id="ITINÉRANT"><path d="M267.13,384q-11.9-28.71-23.78-57.41,7.2-3,14.44-5.8,11.26,28.95,22.55,57.9Q273.71,381.3,267.13,384Z"/><path d="M327.54,362.34q-6.75,2.07-13.47,4.28Q306.3,343,298.54,319.39q-9.35,3.08-18.62,6.41-2.1-5.85-4.21-11.7,26.18-9.41,52.84-16.76l3.3,12q-9.44,2.61-18.83,5.48Z"/><path d="M361.88,352.84q-7.49-30.15-15-60.31,7.47-1.86,15-3.55,6.86,30.31,13.69,60.62Q368.72,351.15,361.88,352.84Z"/><path d="M433,339.24q-13.42-17.73-28.07-34.91,3.22,19.1,6.46,38.2-6.92,1.17-13.81,2.49l-11.64-61q7.53-1.44,15.09-2.72,15,17.12,28.83,34.8-2.6-19.2-5.2-38.4,7.59-1,15.19-1.89l7,61.74Q439.94,338.31,433,339.24Z"/><path d="M505.86,333.41q-18.36.46-36.68,1.93-2.49-31-5-61.94,20-1.61,40.08-2.11.16,6.21.32,12.42-12.23.32-24.42,1,.38,6.17.73,12.32,11.5-.69,23-1l.33,12.42q-11.29.3-22.6,1,.38,6.26.74,12.5,11.57-.69,23.15-1Q505.7,327.21,505.86,333.41Zm-15.59-68q-5.76.25-11.5.6,5.57-8.54,11.41-17,6.72-.28,13.44-.46Q496.78,256.9,490.27,265.37Z"/><path d="M542.2,333.48q-7-.19-14-.26.25-31.07.52-62.14,5.75,0,11.51.19l3.76.1q5.36.15,10.69.39c11.26.48,20.63,9.35,19.71,21.1-.8,10.49-8,16.9-16.33,18.4q8.8,11.89,17,24-8.84-.69-17.68-1.15-7-11.48-14.44-22.81h-.09Q542.52,322.38,542.2,333.48Zm1.5-51.33-.54,18.36q3.92.11,7.82.27a9.19,9.19,0,0,0,.74-18.35C549.05,282.32,546.37,282.22,543.7,282.15Z"/><path d="M633.51,342.46q-1.23-6.56-2.53-13.11-12.18-2-24.4-3.48-3.09,5.92-6.08,11.88-7.47-.88-14.94-1.59,15.74-29.71,33.82-58.67,6.42.86,12.84,1.83,9.27,32.83,16.11,65.8Q640.93,343.71,633.51,342.46Zm-10-48q-5.82,10.35-11.37,20.77,8.25,1.08,16.47,2.35Q626.15,306,623.46,294.47Z"/><path d="M700.28,357.25q-5.44-21.62-12.2-43.17-4.55,18.84-9.07,37.67-6.84-1.65-13.71-3.15,6.63-30.35,13.27-60.71,7.5,1.65,15,3.44,7.14,21.65,13,43.36,5.15-18.68,10.3-37.35,7.43,2.06,14.83,4.26l-17.79,59.54Q707.09,359.12,700.28,357.25Z"/><path d="M761.13,377.22q-6.64-2.54-13.32-4.93l16.77-46.8q-9.29-3.33-18.63-6.38l3.87-11.82q26.35,8.64,52.19,19.33-2.38,5.73-4.76,11.48-9.15-3.8-18.37-7.32Z"/></g>
<g id="LE_VEST_HIER" data-name="LE VEST&apos;HIER"><rect id="_Tracé_8" data-name="&lt;Tracé&gt;" x="665.05" y="85.37" width="23.39" height="42.39" rx="3.6" transform="translate(28.9 -116.22) rotate(10.03)"/><g id="_Texte_" data-name="&lt;Texte&gt;"><path d="M17.87,226.19c3.78-2.63,6.19-3.88,7.18-3.83S27.57,224,29.62,227l53.08,78.4q3.28,4.85,4.65,5c.92.12,3-1,6.37-3.16q13.91-9.21,28.11-17.73c3.41-2,5.54-3,6.38-2.94,1,.11,2.57,2,4.66,5.53l3.51,6c1.78,3.05,2.54,5,2.27,5.87s-2.12,2.3-5.54,4.35q-23.72,14.24-46.58,30.43c-3.74,2.65-6.08,3.9-7.06,3.71-.8-.18-2.23-1.69-4.31-4.55Q40.78,290.6,6.41,243.28,3.29,239,3.53,237.7c.21-1.06,2.51-3.19,6.92-6.32C12.92,229.64,15.39,227.9,17.87,226.19Z"/><path d="M158.11,147.23c3.68-1.63,5.95-2.42,6.8-2.39,1.24.12,2.68,2.09,4.33,5.89l2.61,6q2.33,5.37,1.44,6.74c-.45.87-2.54,2.1-6.26,3.76Q150.29,174.74,133.8,183c-3.94,2-6.1,3.42-6.49,4.3-.54,1,.06,3.12,1.78,6.48l8.25,16.1c1.56,3,2.76,4.75,3.62,5.13s3.81-.72,8.5-3.06q13.11-6.51,26.39-12.53c3.7-1.68,6.06-2.45,7.05-2.36s2.54,2,4.26,5.92l2.86,6.52q2.28,5.19,1.22,6.46c-.5.62-2.42,1.67-5.77,3.18q-13.78,6.22-27.39,13c-3.8,1.91-5.87,3.31-6.23,4.18s.47,2.77,2.08,5.91q4.08,8,8.17,15.94,2.58,5.06,4,5.56c.94.34,3.52-.58,7.78-2.7q14.31-7.11,28.85-13.59c3.33-1.49,5.41-2.12,6.23-1.95s2.17,2,3.72,5.56l2.84,6.54c1.59,3.69,2.07,5.94,1.42,6.75s-2.59,1.93-6.19,3.53q-24.62,11-48.57,23.93c-4,2.14-6.39,3.07-7.33,2.75q-1.14-.4-3.7-5-28.36-51.15-56.71-102.31-2.58-4.63-2.2-5.89c.33-1,2.82-2.82,7.5-5.34Q128.49,160.42,158.11,147.23Z"/><path d="M236.12,118.48c.57-1.21,3.1-2.58,7.63-4,2.7-.87,5.41-1.73,8.11-2.57,4.25-1.32,7.1-1.67,8.56-1.09,1.38.34,3,2,4.84,5q18,28.42,34.62,57.4,2.22,4.14,3.68,3.93c.94-.26,1.35-1.94,1.24-5.07q-.29-34,.84-68.13.11-4.35,1.59-6c1-1.11,4.08-2.3,9.29-3.5L323,93c4.47-1,7.33-1.08,8.58-.35s1.67,2.83,1.31,6.26q-4,60.24-3.56,120.08c.11,3.12-.22,5.27-1,6.47-1,1.27-3.34,2.36-7,3.32-2.82.75-5.63,1.51-8.44,2.3-3.13.86-5.44.77-7-.31a9.21,9.21,0,0,1-3.16-3.85q-29.87-52-63.89-102.2C236.68,121.83,235.74,119.76,236.12,118.48Z"/><path d="M423.7,76.94c3.93-.39,6.3-.42,7.09-.12q1.66.77,2.22,7c.19,2.18.39,4.36.58,6.55.35,3.88.1,6.17-.73,6.85s-3,1.19-7,1.58q-17.89,1.78-35.74,4.31c-4.25.61-6.7,1.3-7.34,2-.79.73-.89,3-.32,6.7q1.38,8.94,2.75,17.89c.52,3.37,1.11,5.37,1.79,6s3.75.53,8.83-.19q14.18-2,28.39-3.49c4-.42,6.4-.4,7.29,0q1.56.58,2.16,7c.22,2.36.44,4.73.67,7.09q.52,5.64-.85,6.51c-.66.43-2.77.81-6.35,1.19q-14.76,1.53-29.48,3.64c-4.11.58-6.46,1.26-7.06,2s-.41,2.78.13,6.27q1.35,8.85,2.71,17.7c.58,3.74,1.25,5.91,2,6.53s3.44.59,8-.06q15.48-2.19,31-3.73c3.56-.35,5.7-.29,6.4.13s1.43,2.57,1.77,6.45l.63,7.1q.54,6-.74,6.86c-.73.55-3,1-6.86,1.39q-26.33,2.64-52.46,7.18c-4.32.76-6.86.86-7.63.26-.62-.51-1.25-2.49-1.9-6Q363,152,352.33,94.46c-.64-3.47-.73-5.56-.24-6.27s3.47-1.76,8.57-2.66Q392,80.07,423.7,76.94Z"/><path d="M532.6,106c-.05,1.58-.09,3.17-.14,4.75-.09,3.17-.5,5-1.24,5.45s-3.11.64-7.14.57c-2.88-.06-5.77-.1-8.65-.12-4.75,0-7.49-.39-8.21-1.12s-.87-2.8-.88-6.21c0-1.22,0-2.44,0-3.66a9.72,9.72,0,0,0-3.89-7.75,15.21,15.21,0,0,0-18.79.36,9.67,9.67,0,0,0-3.59,7.88q.18,5.49.38,11a9.92,9.92,0,0,0,4,7.65,13.71,13.71,0,0,0,9.15,3c10.66-.2,19.77,3,27,9.54s10.65,14.41,10.38,23.54q-.15,5.47-.31,11c-.27,9.14-4,16.78-10.93,23.07a38.41,38.41,0,0,1-49.82.93c-7.16-6-11.18-13.52-11.79-22.64l-.31-4.74c-.21-3.16,0-5,.65-5.54s2.88-.92,6.69-1.14q4.1-.23,8.17-.41c4.5-.21,7.1.07,7.81.78s.91,2.77,1,6.18c0,1.22.08,2.43.13,3.65a10.15,10.15,0,0,0,3.76,7.65,13,13,0,0,0,16.95-.32,10.2,10.2,0,0,0,3.47-7.78l0-11a10,10,0,0,0-3.64-7.75,12.65,12.65,0,0,0-8.83-3.08c-10.37.2-19.26-2.64-26.93-8.64s-11.94-13.48-12.55-22.6c-.25-3.65-.49-7.29-.73-10.94-.61-9.11,2.72-17.15,10.26-23.95s17.12-10.4,28.5-10.62,21.1,3,28.88,9.54S532.87,96.85,532.6,106Z"/><path d="M634.49,81.93c4.37.65,6.88,1.29,7.56,1.89s.89,3.16.24,7.25q-.54,3.44-1.09,6.86-.83,5.23-2.07,6c-.83.49-3.44.38-7.83-.27q-5.94-.87-11.89-1.66c-5-.66-8-.65-8.95,0s-1.68,2.74-2.16,6.73l-11.49,95.45c-.44,3.63-1,5.7-1.73,6.23s-2.91.58-6.61.17q-3.65-.41-7.28-.76c-4.35-.44-6.81-1-7.38-1.8s-.54-2.74-.23-6.26q4.27-48.24,8.53-96.49a34.94,34.94,0,0,0,.22-4.94,2.36,2.36,0,0,0-1.39-2c-.85-.44-3.42-.85-7.7-1.18s-8.41-.61-12.62-.87c-4.43-.27-7-.71-7.71-1.36s-1-2.73-.79-6.26l.36-6.94c.21-4.13.78-6.48,1.73-7,.78-.45,3.36-.56,7.76-.29Q598.35,76.62,634.49,81.93Z"/><path d="M724.77,100.18c4.29,1.11,6.72,2.09,7.3,2.87s.39,3-.56,6.48q-5.24,19.41-10.48,38.82c-.92,3.41-1.18,5.49-.79,6.22.5.9,2.75,1.88,6.76,3q4.65,1.31,9.3,2.67c3.85,1.13,6.17,1.52,7,1.12s1.73-2.34,2.79-5.83q5.87-19.25,11.72-38.47c1-3.38,1.92-5.27,2.68-5.68.95-.47,3.92,0,8.89,1.62q4.17,1.32,8.32,2.68c4.23,1.39,6.6,2.52,7.13,3.34s.21,3-1,6.43Q765,180.83,746.19,236.2c-1.18,3.47-2.18,5.38-3,5.75s-3-.06-6.59-1.23q-3.51-1.16-7.05-2.28c-4.21-1.33-6.52-2.41-6.93-3.3-.32-.74,0-2.79,1.06-6.18q5.84-19.14,11.66-38.29c1.14-3.73,1.46-6,1-6.77s-2.59-1.55-6.21-2.62q-4.51-1.32-9-2.59c-3.9-1.09-6.26-1.41-7.09-1s-1.49,2.32-2.38,5.61q-5.28,19.59-10.57,39.17c-.95,3.53-1.83,5.51-2.61,5.93s-3,.14-6.62-.8c-2.39-.62-4.77-1.22-7.16-1.81-4.27-1.06-6.64-2-7.1-2.85s-.14-2.79.67-6.23q13.42-56.92,26.86-113.85c.81-3.44,1.58-5.38,2.32-5.84.91-.53,3.89-.21,8.93,1Q720.55,99.1,724.77,100.18Z"/><path d="M822.16,131.65c4.17,1.63,6.48,2.89,7,3.74s.05,3-1.32,6.37L784.16,250.28c-1.36,3.4-2.47,5.25-3.3,5.57s-3-.22-6.54-1.6q-3.47-1.35-6.94-2.67c-4.15-1.57-6.41-2.78-6.77-3.69-.29-.75.18-2.79,1.39-6.11q20.09-54.93,40.15-109.87,1.82-5,3-5.52c1-.42,3.92.26,8.81,2.11Q818.07,130.06,822.16,131.65Z"/><path d="M916.3,175.1c3.58,1.93,5.61,3.25,6.12,4,.67,1.06,0,3.41-2,7l-3.17,5.77c-1.88,3.42-3.37,5.17-4.46,5.27s-3.25-.74-6.87-2.69q-16.29-8.75-32.86-16.72c-4-1.91-6.42-2.72-7.36-2.49s-2.42,2-4,5.38Q857.87,188.79,854,197c-1.44,3.09-2.06,5.09-1.84,6s2.89,2.56,7.61,4.84q13.15,6.36,26.14,13.22c3.62,1.91,5.69,3.32,6.23,4.16s0,3.25-2,7q-1.71,3.12-3.4,6.26c-1.81,3.32-3.26,5-4.37,4.91-.8,0-2.83-.91-6.09-2.64Q862.78,233.6,849.1,227c-3.82-1.84-6.2-2.61-7.09-2.36s-1.91,2.07-3.4,5.27L831,246.16c-1.61,3.42-2.25,5.6-1.95,6.55s2.6,2.43,6.87,4.49q14.38,6.94,28.52,14.54c3.24,1.74,5,3,5.4,3.76s-.21,2.94-2.09,6.36l-3.44,6.25c-1.93,3.52-3.43,5.27-4.48,5.25s-3.13-.89-6.63-2.76q-24-12.83-48.63-23.75c-4.08-1.8-6.29-3.14-6.6-4.08q-.36-1.14,1.73-6,23.07-53.74,46.13-107.5c1.39-3.24,2.49-5,3.3-5.34,1-.37,3.91.48,8.73,2.61Q887.49,159.65,916.3,175.1Z"/><path d="M977.71,211.43c9.94,6.45,16.54,14.83,19.63,24.79s1.81,18.67-3.54,26.08l-6.41,8.89a28.89,28.89,0,0,1-16.58,11.06,40.18,40.18,0,0,1-21.73-.36q-3,26.83-7.5,53.16c-.73,4.28-1.6,6.74-2.57,7.39s-2.94-.11-5.9-2.22q-3.87-2.76-7.76-5.47c-3.21-2.22-5.16-4.13-5.83-5.77a6.83,6.83,0,0,1-.43-1.17,5,5,0,0,1-.11-1.29c0-.5,0-.94,0-1.31s0-.93.06-1.72a9.65,9.65,0,0,1,.19-1.74q3-22.06,5.06-44.46c.09-2.54-.14-4.05-.68-4.54-.49-.3-1.25.38-2.28,2l-21.51,34.4c-1.93,3.1-3.35,4.73-4.24,4.9s-3-.79-6.27-2.8q-3.24-2-6.5-3.93c-3.89-2.31-6-3.93-6.15-4.9q-.24-1.18,2.43-5.77l58.71-101.17q2.67-4.59,3.94-4.9c1-.24,3.87,1,8.46,3.71Q964.09,202.6,977.71,211.43ZM954.4,223.66q-1.26.28-3.68,4.16l-10.08,16.12c-1.81,2.89-2.65,4.8-2.54,5.74.17,1.12,2.51,3.08,7,5.95l2.79,1.81a14.7,14.7,0,0,0,9.66,2.52,9.79,9.79,0,0,0,7.58-4.28l6.12-9.1a9.57,9.57,0,0,0,1-8.69,15.1,15.1,0,0,0-6.44-8.06l-3.88-2.5C957.88,224.76,955.37,223.55,954.4,223.66Z"/></g></g><g id="ampoule"><path d="M850,108.76a3,3,0,0,1-4.14.34,2.93,2.93,0,0,1-3.81,4.46v0h0l0,0a3,3,0,0,1,.29,4.13,2.92,2.92,0,0,1-4.13.32,2.94,2.94,0,1,1-3.82,4.46l-.11.11-21.68-8.89v-.18a2.92,2.92,0,0,1,0-5.82.38.38,0,0,1,.18,0,.55.55,0,0,1-.18,0,2.93,2.93,0,0,1,0-5.85.55.55,0,0,1,.18,0,.55.55,0,0,1-.18,0,2.92,2.92,0,0,1,0-5.83.55.55,0,0,1,.18,0,.38.38,0,0,1-.18,0,2.92,2.92,0,0,1,0-5.82v-2l4.73,2,3,1.23,22.8,9.37,3.59,1.48,3.79,1.56-.84,1A3,3,0,0,1,850,108.76Z"/><path d="M824,92.75l14,5.77-1.25-.67,18.13-34.18c-.65-.3-1.29-.59-1.91-.9a26.68,26.68,0,0,1-4.91-3.46,1.05,1.05,0,0,0-.64-.24,23.81,23.81,0,0,1-6.6-1l-3-.82L825,93.13Z"/><path d="M866.91,61.08a3.29,3.29,0,0,0,2.26-3,6.42,6.42,0,0,0-.92-2.62,2.39,2.39,0,0,0-3.21-.89,6.36,6.36,0,0,0-1.13.79c-1.82,1.69-2.75,4-3.95,6.13A18.42,18.42,0,0,0,866.91,61.08Z"/><path d="M849.49,55.35a4.86,4.86,0,0,0,2.88-2.3,11.37,11.37,0,0,0,1.18-4.15,4,4,0,0,0-.73-2.68c-.46-.75-.87-.88-1.56-.35a15.58,15.58,0,0,0-2.1,2,5.85,5.85,0,0,0-1.44,3.63,6,6,0,0,0,1.22,3.71A.42.42,0,0,0,849.49,55.35Z"/><path d="M836.64,45.05a7.77,7.77,0,0,0-.53-2.94,1.76,1.76,0,0,0-1.68-1.26,6.42,6.42,0,0,0-4.33,1.57,1.52,1.52,0,0,0-.45,1.67,8.45,8.45,0,0,0,.72,1.76,16.63,16.63,0,0,0,3.13,3.72c.75.7,1.54,1.35,2.34,2a1.66,1.66,0,0,0,.1-.21A28.37,28.37,0,0,0,836.64,45.05Z"/><path d="M867.7,3a40,40,0,0,0-55.08,39.54V88.08l4.73,2,3,1.23,1.43.59a2.34,2.34,0,0,0,.15-.27l12.87-36a.44.44,0,0,0-.18-.6,32.75,32.75,0,0,1-5.26-4.72,13.38,13.38,0,0,1-2.88-4.67,5.29,5.29,0,0,1,2.28-6.47,10.49,10.49,0,0,1,3-1.3c.61-.16,1.23-.27,1.85-.4h1.22c.3.06.61.12.9.2a5.38,5.38,0,0,1,3.82,3.87,14.43,14.43,0,0,1,.5,5.27,35.61,35.61,0,0,1-1,6.58c-.08.34,0,.47.29.63a6.12,6.12,0,0,0,2,.65l3.52.83.28,0c-.2-.66-.45-1.29-.58-1.94a9.23,9.23,0,0,1,2.06-8,11.31,11.31,0,0,1,2.91-2.65,4.27,4.27,0,0,1,6.19,1.39A8,8,0,0,1,857,47.64a8.78,8.78,0,0,1-.13,2.22,12.68,12.68,0,0,1-1.54,4.93,8.27,8.27,0,0,1-3,3L852,58a14.89,14.89,0,0,0,4.52,2.57c.3-.56.61-1.13.91-1.71a26.48,26.48,0,0,1,3.08-5,8.44,8.44,0,0,1,4.41-3A5.92,5.92,0,0,1,871,53.43a9.08,9.08,0,0,1,1.56,4.76,6.62,6.62,0,0,1-2.88,5.35,7.31,7.31,0,0,1-3.11,1.1,19.92,19.92,0,0,1-8,.06c-.31-.06-.37.09-.48.29l-8.47,16L840,99.09l-.11.19,3.27,1.35,3.59,1.48,3.79,1.56,30.75-35.92.23-.25,2.67-3.11.12-.13A40,40,0,0,0,867.7,3Z"/></g></g></g></svg>