<svg xmlns="http://www.w3.org/2000/svg" viewBox="0 0 222 104.51"><defs><style>.cls-1,.cls-2{fill:none;stroke-miterlimit:10;opacity:0.7;}.cls-1{stroke:#cedf9f;stroke-width:0.71px;}.cls-2{stroke:#7eb928;stroke-width:1.42px;}.cls-3{fill:#7eb928;}.cls-4{fill:#cedf9f;}</style></defs><title>droite</title><g id="bannière_pc_1200x150_bleu_v1" data-name="bannière pc 1200x150 bleu v1"><path id="_Tracé_" data-name="&lt;Tracé&gt;" class="cls-1" d="M6.93,105.34A163.61,163.61,0,0,1,222.26,44.8"/><path id="_Tracé_2" data-name="&lt;Tracé&gt;" class="cls-1" d="M-1,105.34a175.74,175.74,0,0,1,223.23-91.2"/><path id="_Tracé_3" data-name="&lt;Tracé&gt;" class="cls-2" d="M2.42,105.34A170,170,0,0,1,222.26,28.28"/><path class="cls-3" d="M223,64.37v42.39H44.18A108,108,0,0,1,223,64.37Z"/><path class="cls-4" d="M223.07,64.33l.17,42.43V107H223l-178.79.58H43l.37-1.12A109.18,109.18,0,0,1,73,60.38,107.8,107.8,0,0,1,176.29,36.17a104.28,104.28,0,0,1,25.22,11.07c2,1.15,3.88,2.46,5.78,3.75s3.74,2.67,5.54,4.09A106.34,106.34,0,0,1,223.07,64.33Zm-.2.08a109.19,109.19,0,0,0-10.4-8.86c-1.83-1.36-3.68-2.7-5.61-3.91S203,49.16,201,48.07a103.84,103.84,0,0,0-25.14-10.48A108.33,108.33,0,0,0,149,33.74a106.36,106.36,0,0,0-13.59.66A108.4,108.4,0,0,0,122,36.75a106.56,106.56,0,0,0-25.37,9.59A112.46,112.46,0,0,0,85,53.4l-2.73,2-1.37,1L79.61,57.5,77,59.66l-2.53,2.27A107.45,107.45,0,0,0,45,107l-.8-1.12,178.79.59-.27.27Z"/><path class="cls-3" d="M78.79-2.24a36.52,36.52,0,0,1-9.55,20.42A36.73,36.73,0,0,1,17.33,20,36.58,36.58,0,0,1,5.91-2.24Z"/><path class="cls-4" d="M78.87-2.31c-.06.56-.11,1.18-.21,1.73s-.18,1.09-.3,1.63c-.22,1.09-.51,2.17-.83,3.23A36.28,36.28,0,0,1,75,10.45a38,38,0,0,1-3.59,5.62c-.69.87-1.4,1.74-2.17,2.54L66.88,21a37.27,37.27,0,0,1-24.53,9.46,37,37,0,0,1-24.78-9.17A37.51,37.51,0,0,1,4.92-2.12L4.77-3.23H5.91c6.14-.06,12.29-.1,18.44-.08l9.22.06,9.17.15c6.11.1,12.2.19,18.22.35Zm-.16.14-18.53.44C54.05-1.57,48-1.47,42-1.37l-9.05.14-9,.06c-6,0-12,0-18-.07l1-1.13A35.46,35.46,0,0,0,18.6,20.09a35.59,35.59,0,0,0,23.75,9.16A36.57,36.57,0,0,0,66.4,20.43l2.38-2.27c.78-.77,1.49-1.61,2.19-2.45a37.23,37.23,0,0,0,3.64-5.48,35.13,35.13,0,0,0,2.6-6.05c.34-1,.64-2.11.88-3.19.13-.53.22-1.07.33-1.61S78.59-1.64,78.71-2.17Z"/></g></svg>