<svg xmlns="http://www.w3.org/2000/svg" viewBox="0 0 222.61 104.51"><defs><style>.cls-1,.cls-2{fill:none;stroke-miterlimit:10;opacity:0.7;}.cls-1{stroke:#cedf9f;stroke-width:0.7px;}.cls-2{stroke:#7eb928;stroke-width:1.4px;}.cls-3{fill:#7eb928;}.cls-4{fill:#cedf9f;}</style></defs><title>gauche</title><g id="bannière_pc_1200x150_bleu_v1" data-name="bannière pc 1200x150 bleu v1"><path id="_Tracé_" data-name="&lt;Tracé&gt;" class="cls-1" d="M191.21-.24a161.68,161.68,0,0,1,17.52,105"/><path id="_Tracé_2" data-name="&lt;Tracé&gt;" class="cls-1" d="M194-.24a173.08,173.08,0,0,1,27.62,105"/><path id="_Tracé_3" data-name="&lt;Tracé&gt;" class="cls-2" d="M192.82-.24a167.73,167.73,0,0,1,23,105"/><path class="cls-3" d="M185.39,106.76H-1.32v-109h186.7A134.49,134.49,0,0,1,185.39,106.76Z"/><path class="cls-4" d="M185.39,106.76l-93.19.56-93.52.34h-.9v-.91l-.14-109v-1h1.05L92-3.18l46.67.09,46.68.18h.43l.18.4a134.89,134.89,0,0,1,8.55,26.8,131.41,131.41,0,0,1,2.75,28A135.7,135.7,0,0,1,185.39,106.76Zm0,0a134.73,134.73,0,0,0,8.06-82.24A133.77,133.77,0,0,0,184.77-2l.61.39L138.7-1.4,92-1.31-1.32-1.2l1.05-1-.14,109-.91-.91,93.19.34Z"/></g></svg>